<svg width="32" height="32" viewBox="0 0 32 32" fill="none" xmlns="http://www.w3.org/2000/svg">
<g clip-path="url(#clip0_279_1736)">
<mask id="path-1-outside-1_279_1736" maskUnits="userSpaceOnUse" x="-1" y="0.0522766" width="34" height="32" fill="black">
<rect fill="white" x="-1" y="0.0522766" width="34" height="32"/>
<path d="M20.7625 2.7625C18.0375 4.25625 17.4062 4.625 17.325 4.78125C17.2313 4.95 17.2188 5.2875 17.2188 7.96875C17.225 10.5437 17.2437 11.0625 17.3375 11.65C17.4563 12.3625 17.7188 13.3312 17.9312 13.825L18.0562 14.1187L15.0437 14.1375L12.0312 14.1562L11.6125 14.3187C10.9875 14.5625 10.5312 14.8625 10.1313 15.2875C9.9375 15.4937 9.15 16.4937 8.38125 17.5062L6.9875 19.3437L4.50625 20.0187C3.14375 20.3875 1.85625 20.775 1.64375 20.875C0.94375 21.2 0.3875 21.8375 0.13125 22.6062C0.0125 22.9562 0 23.1437 0 24.4562C0 25.7375 0.0125 25.9625 0.11875 26.2687C0.5375 27.4812 1.5125 28.2187 2.8625 28.3437C3.14375 28.375 3.3125 28.4125 3.3125 28.4625C3.3125 28.5 3.4125 28.7437 3.53125 28.9937C3.8375 29.6312 4.5375 30.3312 5.1875 30.65C6.20625 31.1437 7.3 31.1875 8.3125 30.7562C9.16875 30.4 9.8 29.7875 10.2125 28.925L10.4688 28.375H15.8313C20.8813 28.375 21.1938 28.3812 21.225 28.4812C21.2437 28.5437 21.3625 28.8062 21.4813 29.0625C21.925 29.9812 22.9188 30.7437 23.975 30.9687C25.6187 31.3187 27.3313 30.5125 28.0625 29.0437C28.2 28.775 28.3125 28.5125 28.3125 28.4687C28.3125 28.4187 28.5125 28.3812 28.9625 28.35C30.4688 28.2562 31.45 27.55 31.875 26.275C32 25.9062 32.0063 25.775 31.9875 24.175L31.9688 22.4687L31.7938 22.0937C31.5375 21.55 31.1812 21.1125 30.7688 20.8375C30.5688 20.7 29.8062 20.325 29.0813 20L27.7625 19.4062L27.4312 18.8687C27.25 18.5687 27.1063 18.3062 27.1125 18.2875C27.1187 18.2625 27.3563 18.075 27.6375 17.8625C29.3438 16.6062 30.6375 14.725 31.225 12.625C31.5312 11.55 31.5625 11.0937 31.5625 7.875V4.875L31.3938 4.69375C31.1375 4.43125 24.6625 0.993746 24.3438 0.956247C24.1125 0.931246 23.8563 1.0625 20.7625 2.7625ZM27.2375 4.1375L30.075 5.65L30.0438 8.36875C30.025 10.5187 29.9937 11.1875 29.9188 11.5312C29.2875 14.4 27.5813 16.475 24.9125 17.65L24.25 17.9375L23.6125 17.6312C22.8188 17.25 22.3 16.9187 21.6688 16.3812C20.175 15.125 19.1438 13.2562 18.8438 11.2812C18.775 10.8062 18.75 10.0562 18.75 8.14375V5.6375L21.4875 4.13125C22.9875 3.30625 24.2563 2.625 24.3062 2.625C24.3563 2.625 25.675 3.30625 27.2375 4.1375ZM19.0938 15.8937C19.7063 16.7625 20.8313 17.8 21.8375 18.425C22.625 18.9187 23.975 19.5187 24.2812 19.5125C24.4312 19.5125 24.7688 19.4062 25.1125 19.2562L25.6938 19.0062L25.9188 19.3625C26.5562 20.3687 26.6938 20.5625 26.825 20.65C26.9062 20.7 27.5625 21.0125 28.2938 21.3375C29.0188 21.6625 29.7 21.9875 29.8062 22.05C30.0625 22.2062 30.3625 22.5875 30.4375 22.8687C30.4688 22.9937 30.5 23.6437 30.5 24.3187C30.5 25.7437 30.45 25.9625 30.0438 26.3625C29.725 26.675 29.3625 26.8125 28.85 26.8125H28.4625L28.3875 26.4437C28.1562 25.3187 27.2125 24.2625 26.0312 23.8125C25.5125 23.6125 24.45 23.5687 23.875 23.7187C22.7063 24.0187 21.7563 24.85 21.325 25.9375C21.25 26.125 21.1688 26.3937 21.1375 26.5312L21.0875 26.7812L15.825 26.8L10.5625 26.8125L10.525 26.6437C10.125 24.8312 8.69375 23.625 6.9375 23.625C6.23125 23.625 5.83125 23.7062 5.26875 23.975C4.35 24.4125 3.66875 25.1812 3.35 26.1375C3.2625 26.4 3.1875 26.6625 3.1875 26.7125C3.1875 26.7812 3.125 26.8125 2.975 26.8125C2.41875 26.8125 1.775 26.35 1.59375 25.8187C1.475 25.4687 1.4625 23.4937 1.575 23.1125C1.66875 22.7937 2.05 22.3625 2.35625 22.2312C2.4875 22.175 3.75 21.8125 5.15625 21.4312C6.56875 21.05 7.78125 20.7 7.85625 20.65C7.93125 20.6 8.7125 19.625 9.5875 18.475C10.4625 17.3312 11.2875 16.3 11.4187 16.1875C11.6938 15.9437 12.1 15.7562 12.4938 15.6875C12.65 15.6625 14.1625 15.6375 15.8438 15.6312L18.9062 15.625L19.0938 15.8937ZM7.7 25.3C8.1125 25.4812 8.40625 25.7312 8.65625 26.1C9.1 26.7625 9.15625 27.5187 8.8125 28.2312C8.5875 28.7062 8.25 29.0312 7.75 29.275C7.4 29.4375 7.275 29.4687 6.84375 29.4687C6.4375 29.4625 6.28125 29.4375 5.9875 29.3C4.7625 28.7312 4.31875 27.2125 5.05625 26.125C5.3375 25.7125 5.625 25.475 6.1 25.275C6.40625 25.1437 6.54375 25.125 6.9375 25.1437C7.2375 25.1562 7.5125 25.2125 7.7 25.3ZM25.6688 25.3375C26.1187 25.5437 26.525 25.9437 26.75 26.4062C26.8813 26.6687 26.9062 26.8062 26.9062 27.3125C26.9062 27.8062 26.8813 27.9562 26.7625 28.2C26.5312 28.6625 26.1625 29.0375 25.7 29.2625C25.3313 29.4437 25.225 29.4687 24.7812 29.4687C24.3687 29.4625 24.2188 29.4375 23.9062 29.2937C22.75 28.7562 22.2688 27.4312 22.8375 26.3375C23.3813 25.2687 24.5938 24.85 25.6688 25.3375Z"/>
</mask>
<path d="M20.7625 2.7625C18.0375 4.25625 17.4062 4.625 17.325 4.78125C17.2313 4.95 17.2188 5.2875 17.2188 7.96875C17.225 10.5437 17.2437 11.0625 17.3375 11.65C17.4563 12.3625 17.7188 13.3312 17.9312 13.825L18.0562 14.1187L15.0437 14.1375L12.0312 14.1562L11.6125 14.3187C10.9875 14.5625 10.5312 14.8625 10.1313 15.2875C9.9375 15.4937 9.15 16.4937 8.38125 17.5062L6.9875 19.3437L4.50625 20.0187C3.14375 20.3875 1.85625 20.775 1.64375 20.875C0.94375 21.2 0.3875 21.8375 0.13125 22.6062C0.0125 22.9562 0 23.1437 0 24.4562C0 25.7375 0.0125 25.9625 0.11875 26.2687C0.5375 27.4812 1.5125 28.2187 2.8625 28.3437C3.14375 28.375 3.3125 28.4125 3.3125 28.4625C3.3125 28.5 3.4125 28.7437 3.53125 28.9937C3.8375 29.6312 4.5375 30.3312 5.1875 30.65C6.20625 31.1437 7.3 31.1875 8.3125 30.7562C9.16875 30.4 9.8 29.7875 10.2125 28.925L10.4688 28.375H15.8313C20.8813 28.375 21.1938 28.3812 21.225 28.4812C21.2437 28.5437 21.3625 28.8062 21.4813 29.0625C21.925 29.9812 22.9188 30.7437 23.975 30.9687C25.6187 31.3187 27.3313 30.5125 28.0625 29.0437C28.2 28.775 28.3125 28.5125 28.3125 28.4687C28.3125 28.4187 28.5125 28.3812 28.9625 28.35C30.4688 28.2562 31.45 27.55 31.875 26.275C32 25.9062 32.0063 25.775 31.9875 24.175L31.9688 22.4687L31.7938 22.0937C31.5375 21.55 31.1812 21.1125 30.7688 20.8375C30.5688 20.7 29.8062 20.325 29.0813 20L27.7625 19.4062L27.4312 18.8687C27.25 18.5687 27.1063 18.3062 27.1125 18.2875C27.1187 18.2625 27.3563 18.075 27.6375 17.8625C29.3438 16.6062 30.6375 14.725 31.225 12.625C31.5312 11.55 31.5625 11.0937 31.5625 7.875V4.875L31.3938 4.69375C31.1375 4.43125 24.6625 0.993746 24.3438 0.956247C24.1125 0.931246 23.8563 1.0625 20.7625 2.7625ZM27.2375 4.1375L30.075 5.65L30.0438 8.36875C30.025 10.5187 29.9937 11.1875 29.9188 11.5312C29.2875 14.4 27.5813 16.475 24.9125 17.65L24.25 17.9375L23.6125 17.6312C22.8188 17.25 22.3 16.9187 21.6688 16.3812C20.175 15.125 19.1438 13.2562 18.8438 11.2812C18.775 10.8062 18.75 10.0562 18.75 8.14375V5.6375L21.4875 4.13125C22.9875 3.30625 24.2563 2.625 24.3062 2.625C24.3563 2.625 25.675 3.30625 27.2375 4.1375ZM19.0938 15.8937C19.7063 16.7625 20.8313 17.8 21.8375 18.425C22.625 18.9187 23.975 19.5187 24.2812 19.5125C24.4312 19.5125 24.7688 19.4062 25.1125 19.2562L25.6938 19.0062L25.9188 19.3625C26.5562 20.3687 26.6938 20.5625 26.825 20.65C26.9062 20.7 27.5625 21.0125 28.2938 21.3375C29.0188 21.6625 29.7 21.9875 29.8062 22.05C30.0625 22.2062 30.3625 22.5875 30.4375 22.8687C30.4688 22.9937 30.5 23.6437 30.5 24.3187C30.5 25.7437 30.45 25.9625 30.0438 26.3625C29.725 26.675 29.3625 26.8125 28.85 26.8125H28.4625L28.3875 26.4437C28.1562 25.3187 27.2125 24.2625 26.0312 23.8125C25.5125 23.6125 24.45 23.5687 23.875 23.7187C22.7063 24.0187 21.7563 24.85 21.325 25.9375C21.25 26.125 21.1688 26.3937 21.1375 26.5312L21.0875 26.7812L15.825 26.8L10.5625 26.8125L10.525 26.6437C10.125 24.8312 8.69375 23.625 6.9375 23.625C6.23125 23.625 5.83125 23.7062 5.26875 23.975C4.35 24.4125 3.66875 25.1812 3.35 26.1375C3.2625 26.4 3.1875 26.6625 3.1875 26.7125C3.1875 26.7812 3.125 26.8125 2.975 26.8125C2.41875 26.8125 1.775 26.35 1.59375 25.8187C1.475 25.4687 1.4625 23.4937 1.575 23.1125C1.66875 22.7937 2.05 22.3625 2.35625 22.2312C2.4875 22.175 3.75 21.8125 5.15625 21.4312C6.56875 21.05 7.78125 20.7 7.85625 20.65C7.93125 20.6 8.7125 19.625 9.5875 18.475C10.4625 17.3312 11.2875 16.3 11.4187 16.1875C11.6938 15.9437 12.1 15.7562 12.4938 15.6875C12.65 15.6625 14.1625 15.6375 15.8438 15.6312L18.9062 15.625L19.0938 15.8937ZM7.7 25.3C8.1125 25.4812 8.40625 25.7312 8.65625 26.1C9.1 26.7625 9.15625 27.5187 8.8125 28.2312C8.5875 28.7062 8.25 29.0312 7.75 29.275C7.4 29.4375 7.275 29.4687 6.84375 29.4687C6.4375 29.4625 6.28125 29.4375 5.9875 29.3C4.7625 28.7312 4.31875 27.2125 5.05625 26.125C5.3375 25.7125 5.625 25.475 6.1 25.275C6.40625 25.1437 6.54375 25.125 6.9375 25.1437C7.2375 25.1562 7.5125 25.2125 7.7 25.3ZM25.6688 25.3375C26.1187 25.5437 26.525 25.9437 26.75 26.4062C26.8813 26.6687 26.9062 26.8062 26.9062 27.3125C26.9062 27.8062 26.8813 27.9562 26.7625 28.2C26.5312 28.6625 26.1625 29.0375 25.7 29.2625C25.3313 29.4437 25.225 29.4687 24.7812 29.4687C24.3687 29.4625 24.2188 29.4375 23.9062 29.2937C22.75 28.7562 22.2688 27.4312 22.8375 26.3375C23.3813 25.2687 24.5938 24.85 25.6688 25.3375Z" fill="#38004D"/>
<path d="M20.7625 2.7625C18.0375 4.25625 17.4062 4.625 17.325 4.78125C17.2313 4.95 17.2188 5.2875 17.2188 7.96875C17.225 10.5437 17.2437 11.0625 17.3375 11.65C17.4563 12.3625 17.7188 13.3312 17.9312 13.825L18.0562 14.1187L15.0437 14.1375L12.0312 14.1562L11.6125 14.3187C10.9875 14.5625 10.5312 14.8625 10.1313 15.2875C9.9375 15.4937 9.15 16.4937 8.38125 17.5062L6.9875 19.3437L4.50625 20.0187C3.14375 20.3875 1.85625 20.775 1.64375 20.875C0.94375 21.2 0.3875 21.8375 0.13125 22.6062C0.0125 22.9562 0 23.1437 0 24.4562C0 25.7375 0.0125 25.9625 0.11875 26.2687C0.5375 27.4812 1.5125 28.2187 2.8625 28.3437C3.14375 28.375 3.3125 28.4125 3.3125 28.4625C3.3125 28.5 3.4125 28.7437 3.53125 28.9937C3.8375 29.6312 4.5375 30.3312 5.1875 30.65C6.20625 31.1437 7.3 31.1875 8.3125 30.7562C9.16875 30.4 9.8 29.7875 10.2125 28.925L10.4688 28.375H15.8313C20.8813 28.375 21.1938 28.3812 21.225 28.4812C21.2437 28.5437 21.3625 28.8062 21.4813 29.0625C21.925 29.9812 22.9188 30.7437 23.975 30.9687C25.6187 31.3187 27.3313 30.5125 28.0625 29.0437C28.2 28.775 28.3125 28.5125 28.3125 28.4687C28.3125 28.4187 28.5125 28.3812 28.9625 28.35C30.4688 28.2562 31.45 27.55 31.875 26.275C32 25.9062 32.0063 25.775 31.9875 24.175L31.9688 22.4687L31.7938 22.0937C31.5375 21.55 31.1812 21.1125 30.7688 20.8375C30.5688 20.7 29.8062 20.325 29.0813 20L27.7625 19.4062L27.4312 18.8687C27.25 18.5687 27.1063 18.3062 27.1125 18.2875C27.1187 18.2625 27.3563 18.075 27.6375 17.8625C29.3438 16.6062 30.6375 14.725 31.225 12.625C31.5312 11.55 31.5625 11.0937 31.5625 7.875V4.875L31.3938 4.69375C31.1375 4.43125 24.6625 0.993746 24.3438 0.956247C24.1125 0.931246 23.8563 1.0625 20.7625 2.7625ZM27.2375 4.1375L30.075 5.65L30.0438 8.36875C30.025 10.5187 29.9937 11.1875 29.9188 11.5312C29.2875 14.4 27.5813 16.475 24.9125 17.65L24.25 17.9375L23.6125 17.6312C22.8188 17.25 22.3 16.9187 21.6688 16.3812C20.175 15.125 19.1438 13.2562 18.8438 11.2812C18.775 10.8062 18.75 10.0562 18.75 8.14375V5.6375L21.4875 4.13125C22.9875 3.30625 24.2563 2.625 24.3062 2.625C24.3563 2.625 25.675 3.30625 27.2375 4.1375ZM19.0938 15.8937C19.7063 16.7625 20.8313 17.8 21.8375 18.425C22.625 18.9187 23.975 19.5187 24.2812 19.5125C24.4312 19.5125 24.7688 19.4062 25.1125 19.2562L25.6938 19.0062L25.9188 19.3625C26.5562 20.3687 26.6938 20.5625 26.825 20.65C26.9062 20.7 27.5625 21.0125 28.2938 21.3375C29.0188 21.6625 29.7 21.9875 29.8062 22.05C30.0625 22.2062 30.3625 22.5875 30.4375 22.8687C30.4688 22.9937 30.5 23.6437 30.5 24.3187C30.5 25.7437 30.45 25.9625 30.0438 26.3625C29.725 26.675 29.3625 26.8125 28.85 26.8125H28.4625L28.3875 26.4437C28.1562 25.3187 27.2125 24.2625 26.0312 23.8125C25.5125 23.6125 24.45 23.5687 23.875 23.7187C22.7063 24.0187 21.7563 24.85 21.325 25.9375C21.25 26.125 21.1688 26.3937 21.1375 26.5312L21.0875 26.7812L15.825 26.8L10.5625 26.8125L10.525 26.6437C10.125 24.8312 8.69375 23.625 6.9375 23.625C6.23125 23.625 5.83125 23.7062 5.26875 23.975C4.35 24.4125 3.66875 25.1812 3.35 26.1375C3.2625 26.4 3.1875 26.6625 3.1875 26.7125C3.1875 26.7812 3.125 26.8125 2.975 26.8125C2.41875 26.8125 1.775 26.35 1.59375 25.8187C1.475 25.4687 1.4625 23.4937 1.575 23.1125C1.66875 22.7937 2.05 22.3625 2.35625 22.2312C2.4875 22.175 3.75 21.8125 5.15625 21.4312C6.56875 21.05 7.78125 20.7 7.85625 20.65C7.93125 20.6 8.7125 19.625 9.5875 18.475C10.4625 17.3312 11.2875 16.3 11.4187 16.1875C11.6938 15.9437 12.1 15.7562 12.4938 15.6875C12.65 15.6625 14.1625 15.6375 15.8438 15.6312L18.9062 15.625L19.0938 15.8937ZM7.7 25.3C8.1125 25.4812 8.40625 25.7312 8.65625 26.1C9.1 26.7625 9.15625 27.5187 8.8125 28.2312C8.5875 28.7062 8.25 29.0312 7.75 29.275C7.4 29.4375 7.275 29.4687 6.84375 29.4687C6.4375 29.4625 6.28125 29.4375 5.9875 29.3C4.7625 28.7312 4.31875 27.2125 5.05625 26.125C5.3375 25.7125 5.625 25.475 6.1 25.275C6.40625 25.1437 6.54375 25.125 6.9375 25.1437C7.2375 25.1562 7.5125 25.2125 7.7 25.3ZM25.6688 25.3375C26.1187 25.5437 26.525 25.9437 26.75 26.4062C26.8813 26.6687 26.9062 26.8062 26.9062 27.3125C26.9062 27.8062 26.8813 27.9562 26.7625 28.2C26.5312 28.6625 26.1625 29.0375 25.7 29.2625C25.3313 29.4437 25.225 29.4687 24.7812 29.4687C24.3687 29.4625 24.2188 29.4375 23.9062 29.2937C22.75 28.7562 22.2688 27.4312 22.8375 26.3375C23.3813 25.2687 24.5938 24.85 25.6688 25.3375Z" stroke="#38004D" stroke-width="0.2" mask="url(#path-1-outside-1_279_1736)"/>
<path d="M27.106 8.15C26.9748 8.2 26.8185 8.28125 26.7623 8.33125C26.5123 8.54375 23.5873 10.9125 23.5185 10.9562C23.4748 10.9875 23.2185 10.7312 22.8123 10.2562C22.4248 9.8 22.0935 9.46875 21.9623 9.40625C21.356 9.11875 20.6873 9.75 20.9498 10.3625C20.9935 10.4687 21.4498 11.05 21.9623 11.65C22.9873 12.8562 23.1248 12.95 23.556 12.8187C23.6998 12.7812 24.4498 12.2125 25.5623 11.3062C28.1248 9.23125 28.0498 9.3 28.0935 8.975C28.1873 8.375 27.6748 7.94375 27.106 8.15Z" fill="#613EEA"/>
</g>
<defs>
<clipPath id="clip0_279_1736">
<rect width="32" height="32" fill="white"/>
</clipPath>
</defs>
</svg>
